<svg width="90" height="90" viewBox="0 0 90 90" fill="none" xmlns="http://www.w3.org/2000/svg">
<rect width="90" height="90" rx="15" fill="#3662FE"/>
<path opacity="0.4" d="M50.586 31.667H39.4127C34.5593 31.667 31.666 34.5603 31.666 39.4137V50.5737C31.666 55.4403 34.5593 58.3337 39.4127 58.3337H50.5727C55.426 58.3337 58.3193 55.4403 58.3193 50.587V39.4137C58.3327 34.5603 55.4394 31.667 50.586 31.667Z" fill="white"/>
<path d="M51.3307 38.333H44.8907C44.344 38.333 43.8907 38.7863 43.8907 39.333C43.8907 39.8797 44.344 40.333 44.8907 40.333H48.9173L38.624 50.6263C38.2373 51.013 38.2373 51.653 38.624 52.0397C38.824 52.2397 39.0773 52.333 39.3307 52.333C39.584 52.333 39.8373 52.2397 40.0373 52.0397L50.3307 41.7463V45.773C50.3307 46.3197 50.784 46.773 51.3307 46.773C51.8773 46.773 52.3307 46.3197 52.3307 45.773V39.333C52.3307 38.7863 51.8773 38.333 51.3307 38.333Z" fill="white"/>
</svg>
