<svg width="90" height="90" viewBox="0 0 90 90" fill="none" xmlns="http://www.w3.org/2000/svg">
<rect width="90" height="90" rx="15" fill="#3662FE"/>
<path opacity="0.4" d="M57.1075 40.4404V49.5603C57.1075 51.0537 56.3075 52.4404 55.0142 53.2004L47.0942 57.7737C45.8009 58.5204 44.2009 58.5204 42.8942 57.7737L34.9742 53.2004C33.6809 52.4537 32.8809 51.067 32.8809 49.5603V40.4404C32.8809 38.947 33.6809 37.5603 34.9742 36.8003L42.8942 32.227C44.1875 31.4803 45.7875 31.4803 47.0942 32.227L55.0142 36.8003C56.3075 37.5603 57.1075 38.9337 57.1075 40.4404Z" fill="white"/>
<path d="M45.0012 45.0004C46.717 45.0004 48.1079 43.6095 48.1079 41.8937C48.1079 40.178 46.717 38.7871 45.0012 38.7871C43.2854 38.7871 41.8945 40.178 41.8945 41.8937C41.8945 43.6095 43.2854 45.0004 45.0012 45.0004Z" fill="white"/>
<path d="M48.5742 51.2128C49.6542 51.2128 50.2809 50.0129 49.6809 49.1195C48.7742 47.7729 47.0142 46.8662 45.0009 46.8662C42.9875 46.8662 41.2275 47.7729 40.3209 49.1195C39.7209 50.0129 40.3475 51.2128 41.4275 51.2128H48.5742Z" fill="white"/>
</svg>
