<svg width="90" height="90" viewBox="0 0 90 90" fill="none" xmlns="http://www.w3.org/2000/svg">
<rect width="90" height="90" rx="15" fill="#3662FE"/>
<path opacity="0.4" d="M40.9993 31.667C37.506 31.667 34.666 34.507 34.666 38.0003C34.666 41.427 37.346 44.2003 40.8393 44.3203C40.946 44.307 41.0527 44.307 41.1327 44.3203C41.1593 44.3203 41.1727 44.3203 41.1993 44.3203C41.2127 44.3203 41.2127 44.3203 41.226 44.3203C44.6393 44.2003 47.3193 41.427 47.3327 38.0003C47.3327 34.507 44.4927 31.667 40.9993 31.667Z" fill="white"/>
<path d="M47.7733 47.8668C44.0533 45.3868 37.9866 45.3868 34.2399 47.8668C32.5466 49.0002 31.6133 50.5335 31.6133 52.1735C31.6133 53.8135 32.5466 55.3335 34.2266 56.4535C36.0933 57.7068 38.5466 58.3335 40.9999 58.3335C43.4533 58.3335 45.9066 57.7068 47.7733 56.4535C49.4533 55.3202 50.3866 53.8002 50.3866 52.1468C50.3733 50.5068 49.4533 48.9868 47.7733 47.8668Z" fill="white"/>
<path opacity="0.4" d="M55.6545 38.7871C55.8678 41.3738 54.0278 43.6405 51.4811 43.9471C51.4678 43.9471 51.4678 43.9471 51.4545 43.9471H51.4145C51.3345 43.9471 51.2545 43.9471 51.1878 43.9738C49.8945 44.0405 48.7078 43.6271 47.8145 42.8671C49.1878 41.6405 49.9745 39.8005 49.8145 37.8005C49.7211 36.7205 49.3478 35.7338 48.7878 34.8938C49.2945 34.6405 49.8811 34.4805 50.4811 34.4271C53.0945 34.2005 55.4278 36.1471 55.6545 38.7871Z" fill="white"/>
<path d="M58.321 51.1209C58.2143 52.4142 57.3876 53.5342 56.001 54.2942C54.6676 55.0275 52.9876 55.3742 51.321 55.3342C52.281 54.4675 52.841 53.3875 52.9476 52.2409C53.081 50.5875 52.2943 49.0009 50.721 47.7342C49.8276 47.0275 48.7876 46.4675 47.6543 46.0542C50.601 45.2009 54.3076 45.7742 56.5876 47.6142C57.8143 48.6009 58.441 49.8409 58.321 51.1209Z" fill="white"/>
</svg>
