<svg width="90" height="90" viewBox="0 0 90 90" fill="none" xmlns="http://www.w3.org/2000/svg">
<rect width="90" height="90" rx="15" fill="#3662FE"/>
<path opacity="0.4" d="M52.3734 39.3603C52.28 39.347 52.1867 39.347 52.0934 39.3603C50.0267 39.2937 48.3867 37.6003 48.3867 35.5203C48.3867 33.4003 50.1067 31.667 52.2401 31.667C54.3601 31.667 56.0934 33.387 56.0934 35.5203C56.0801 37.6003 54.44 39.2937 52.3734 39.3603Z" fill="white"/>
<path opacity="0.4" d="M56.7195 48.6005C55.2261 49.6005 53.1328 49.9739 51.1995 49.7205C51.7061 48.6272 51.9728 47.4139 51.9862 46.1339C51.9862 44.8005 51.6928 43.5339 51.1328 42.4272C53.1061 42.1605 55.1995 42.5339 56.7061 43.5339C58.8128 44.9205 58.8128 47.2005 56.7195 48.6005Z" fill="white"/>
<path opacity="0.4" d="M37.5862 39.3603C37.6795 39.347 37.7729 39.347 37.8662 39.3603C39.9329 39.2937 41.5729 37.6003 41.5729 35.5203C41.5729 33.4003 39.8529 31.667 37.7195 31.667C35.5995 31.667 33.8662 33.387 33.8662 35.5203C33.8795 37.6003 35.5195 39.2937 37.5862 39.3603Z" fill="white"/>
<path opacity="0.4" d="M37.7335 46.1332C37.7335 47.4265 38.0135 48.6532 38.5202 49.7598C36.6402 49.9598 34.6802 49.5598 33.2402 48.6132C31.1335 47.2132 31.1335 44.9331 33.2402 43.5331C34.6668 42.5731 36.6802 42.1865 38.5735 42.3998C38.0268 43.5198 37.7335 44.7865 37.7335 46.1332Z" fill="white"/>
<path d="M45.1604 50.16C45.0537 50.1467 44.9337 50.1467 44.8137 50.16C42.3604 50.08 40.4004 48.0667 40.4004 45.5867C40.4004 43.0533 42.4404 41 44.9871 41C47.5204 41 49.5737 43.0533 49.5737 45.5867C49.5737 48.0667 47.6271 50.08 45.1604 50.16Z" fill="white"/>
<path d="M40.8264 52.9195C38.8131 54.2662 38.8131 56.4795 40.8264 57.8129C43.1197 59.3462 46.8797 59.3462 49.1731 57.8129C51.1864 56.4662 51.1864 54.2529 49.1731 52.9195C46.8931 51.3862 43.1331 51.3862 40.8264 52.9195Z" fill="white"/>
</svg>
