<svg width="90" height="90" viewBox="0 0 90 90" fill="none" xmlns="http://www.w3.org/2000/svg">
<rect width="90" height="90" rx="15" fill="#3662FE"/>
<path d="M51.3343 33.747V31.667C51.3343 31.1203 50.881 30.667 50.3343 30.667C49.7876 30.667 49.3343 31.1203 49.3343 31.667V33.667H40.6676V31.667C40.6676 31.1203 40.2143 30.667 39.6676 30.667C39.121 30.667 38.6676 31.1203 38.6676 31.667V33.747C35.0676 34.0803 33.321 36.227 33.0543 39.4137C33.0276 39.8003 33.3476 40.1203 33.721 40.1203H56.281C56.6676 40.1203 56.9876 39.787 56.9476 39.4137C56.681 36.227 54.9343 34.0803 51.3343 33.747Z" fill="white"/>
<path opacity="0.4" d="M57 43.4531V45.7731C57 46.5864 56.28 47.2131 55.48 47.0798C55.1067 47.0265 54.72 46.9865 54.3333 46.9865C50.2933 46.9865 47 50.2798 47 54.3198C47 54.9331 47.24 55.7865 47.4933 56.5598C47.7867 57.4265 47.1467 58.3198 46.2267 58.3198H39.6667C35 58.3198 33 55.6531 33 51.6531V43.4398C33 42.7064 33.6 42.1064 34.3333 42.1064H55.6667C56.4 42.1198 57 42.7198 57 43.4531Z" fill="white"/>
<path d="M54.3333 49C51.3867 49 49 51.3867 49 54.3333C49 55.3333 49.28 56.28 49.7733 57.08C50.6933 58.6267 52.3867 59.6667 54.3333 59.6667C56.28 59.6667 57.9733 58.6267 58.8933 57.08C59.3867 56.28 59.6667 55.3333 59.6667 54.3333C59.6667 51.3867 57.28 49 54.3333 49ZM57.0933 53.76L54.2533 56.3867C54.0667 56.56 53.8133 56.6533 53.5733 56.6533C53.32 56.6533 53.0667 56.56 52.8667 56.36L51.5467 55.04C51.16 54.6533 51.16 54.0133 51.5467 53.6267C51.9333 53.24 52.5733 53.24 52.96 53.6267L53.6 54.2667L55.7333 52.2933C56.1333 51.92 56.7733 51.9467 57.1467 52.3467C57.52 52.7467 57.4933 53.3733 57.0933 53.76Z" fill="white"/>
<path d="M40.3333 48.9999C39.9867 48.9999 39.64 48.8532 39.3867 48.6132C39.1467 48.3599 39 48.0132 39 47.6666C39 47.3199 39.1467 46.9732 39.3867 46.7199C39.6933 46.4132 40.16 46.2665 40.6 46.3599C40.68 46.3732 40.76 46.3999 40.84 46.4399C40.92 46.4665 41 46.5066 41.08 46.5599C41.1467 46.6132 41.2133 46.6666 41.28 46.7199C41.52 46.9732 41.6667 47.3199 41.6667 47.6666C41.6667 48.0132 41.52 48.3599 41.28 48.6132C41.2133 48.6665 41.1467 48.7199 41.08 48.7732C41 48.8265 40.92 48.8666 40.84 48.8932C40.76 48.9332 40.68 48.9599 40.6 48.9732C40.5067 48.9866 40.4133 48.9999 40.3333 48.9999Z" fill="white"/>
<path d="M44.9993 49.0006C44.6527 49.0006 44.306 48.8539 44.0527 48.6139C43.8127 48.3606 43.666 48.0139 43.666 47.6672C43.666 47.3206 43.8127 46.9739 44.0527 46.7206C44.5594 46.2273 45.4527 46.2273 45.946 46.7206C46.186 46.9739 46.3327 47.3206 46.3327 47.6672C46.3327 48.0139 46.186 48.3606 45.946 48.6139C45.6927 48.8539 45.346 49.0006 44.9993 49.0006Z" fill="white"/>
<path d="M40.3333 53.6662C39.9867 53.6662 39.64 53.5195 39.3867 53.2795C39.1467 53.0262 39 52.6795 39 52.3328C39 51.9862 39.1467 51.6395 39.3867 51.3862C39.52 51.2662 39.6533 51.1728 39.8267 51.1062C40.32 50.8928 40.9067 51.0129 41.28 51.3862C41.52 51.6395 41.6667 51.9862 41.6667 52.3328C41.6667 52.6795 41.52 53.0262 41.28 53.2795C41.0267 53.5195 40.68 53.6662 40.3333 53.6662Z" fill="white"/>
</svg>
