<svg width="90" height="90" viewBox="0 0 90 90" fill="none" xmlns="http://www.w3.org/2000/svg">
<rect width="90" height="90" rx="15" fill="#3662FE"/>
<path opacity="0.4" d="M45.0003 36.0666V57.4399C44.7737 57.4399 44.5337 57.3999 44.347 57.2933L44.2937 57.2666C41.7337 55.8666 37.267 54.3999 34.3737 54.0133L33.987 53.9599C32.707 53.7999 31.667 52.5999 31.667 51.3199V35.2133C31.667 33.6266 32.9603 32.4266 34.547 32.5599C37.347 32.7866 41.587 34.1999 43.9603 35.6799L44.2937 35.8799C44.4937 35.9999 44.747 36.0666 45.0003 36.0666Z" fill="white"/>
<path d="M58.3333 35.2261V51.3194C58.3333 52.5994 57.2933 53.7994 56.0133 53.9594L55.5733 54.0127C52.6667 54.3994 48.1867 55.8794 45.6267 57.2927C45.4533 57.3994 45.24 57.4394 45 57.4394V36.0661C45.2533 36.0661 45.5067 35.9994 45.7067 35.8794L45.9333 35.7327C48.3067 34.2394 52.56 32.8127 55.36 32.5727H55.44C57.0267 32.4394 58.3333 33.6261 58.3333 35.2261Z" fill="white"/>
<path d="M39.334 41.3203H36.334C35.7873 41.3203 35.334 40.867 35.334 40.3203C35.334 39.7736 35.7873 39.3203 36.334 39.3203H39.334C39.8807 39.3203 40.334 39.7736 40.334 40.3203C40.334 40.867 39.8807 41.3203 39.334 41.3203Z" fill="white"/>
<path d="M40.334 45.3203H36.334C35.7873 45.3203 35.334 44.867 35.334 44.3203C35.334 43.7736 35.7873 43.3203 36.334 43.3203H40.334C40.8807 43.3203 41.334 43.7736 41.334 44.3203C41.334 44.867 40.8807 45.3203 40.334 45.3203Z" fill="white"/>
</svg>
