<svg width="90" height="90" viewBox="0 0 90 90" fill="none" xmlns="http://www.w3.org/2000/svg">
<rect width="90" height="90" rx="15" fill="#3662FE"/>
<path d="M41.4259 46.7076H45.5459V56.3076C45.5459 57.7209 47.3059 58.3876 48.2393 57.3209L58.3326 45.8543C59.2126 44.8543 58.5059 43.2943 57.1726 43.2943H53.0526V33.6943C53.0526 32.2809 51.2926 31.6143 50.3593 32.6809L40.2659 44.1476C39.3993 45.1476 40.1059 46.7076 41.4259 46.7076Z" fill="white"/>
<path opacity="0.4" d="M40.3333 35.334H31C30.4533 35.334 30 34.8807 30 34.334C30 33.7873 30.4533 33.334 31 33.334H40.3333C40.88 33.334 41.3333 33.7873 41.3333 34.334C41.3333 34.8807 40.88 35.334 40.3333 35.334Z" fill="white"/>
<path opacity="0.4" d="M39 56.666H31C30.4533 56.666 30 56.2127 30 55.666C30 55.1193 30.4533 54.666 31 54.666H39C39.5467 54.666 40 55.1193 40 55.666C40 56.2127 39.5467 56.666 39 56.666Z" fill="white"/>
<path opacity="0.4" d="M35 46H31C30.4533 46 30 45.5467 30 45C30 44.4533 30.4533 44 31 44H35C35.5467 44 36 44.4533 36 45C36 45.5467 35.5467 46 35 46Z" fill="white"/>
</svg>
