<svg width="90" height="90" viewBox="0 0 90 90" fill="none" xmlns="http://www.w3.org/2000/svg">
<rect width="90" height="90" rx="15" fill="#3662FE"/>
<path opacity="0.4" d="M44.9993 58.3337C52.3631 58.3337 58.3327 52.3641 58.3327 45.0003C58.3327 37.6365 52.3631 31.667 44.9993 31.667C37.6356 31.667 31.666 37.6365 31.666 45.0003C31.666 52.3641 37.6356 58.3337 44.9993 58.3337Z" fill="white"/>
<path d="M51.3474 44.9071C50.7874 44.8138 50.2941 45.2138 50.2141 45.7605C50.0541 46.9205 49.534 47.9605 48.734 48.7605C46.894 50.6005 44.0407 50.7871 41.9741 49.3605H42.9741C43.5207 49.3605 43.9741 48.9071 43.9741 48.3605C43.9741 47.8138 43.5207 47.3605 42.9741 47.3605H39.4141C38.8674 47.3605 38.4141 47.8138 38.4141 48.3605V51.9205C38.4141 52.4671 38.8674 52.9205 39.4141 52.9205C39.9607 52.9205 40.4141 52.4671 40.4141 51.9205V50.6671C41.7474 51.7471 43.3607 52.3204 44.9874 52.3204C46.8541 52.3204 48.7207 51.6138 50.1474 50.1871C51.254 49.0805 51.9608 47.6538 52.1874 46.0538C52.2808 45.4804 51.8941 44.9738 51.3474 44.9071Z" fill="white"/>
<path d="M38.7866 45.1071C39.2799 45.1071 39.7066 44.7471 39.7732 44.2537C39.9332 43.0937 40.4532 42.0537 41.2532 41.2537C43.0932 39.4137 45.9466 39.2271 48.0133 40.6537H47.0133C46.4666 40.6537 46.0133 41.1071 46.0133 41.6537C46.0133 42.2004 46.4666 42.6537 47.0133 42.6537H50.5732C51.1199 42.6537 51.5732 42.2004 51.5732 41.6537V38.0938C51.5732 37.5471 51.1199 37.0938 50.5732 37.0938C50.0266 37.0938 49.5732 37.5471 49.5732 38.0938V39.3471C46.7066 37.0271 42.5066 37.1737 39.8533 39.8271C38.7466 40.9337 38.0399 42.3604 37.8132 43.9604C37.7332 44.507 38.1199 45.0138 38.6666 45.0938C38.6932 45.1071 38.7466 45.1071 38.7866 45.1071Z" fill="white"/>
</svg>
