<svg width="90" height="90" viewBox="0 0 90 90" fill="none" xmlns="http://www.w3.org/2000/svg">
<rect width="90" height="90" rx="15" fill="#393944"/>
<path d="M58.3327 58.333H31.666C31.1193 58.333 30.666 57.8797 30.666 57.333C30.666 56.7863 31.1193 56.333 31.666 56.333H58.3327C58.8793 56.333 59.3327 56.7863 59.3327 57.333C59.3327 57.8797 58.8793 58.333 58.3327 58.333Z" fill="white"/>
<path d="M42 34.3337V58.3337H48V34.3337C48 32.867 47.4 31.667 45.6 31.667H44.4C42.6 31.667 42 32.867 42 34.3337Z" fill="white"/>
<path opacity="0.4" d="M33 42.3337V58.3337H38.3333V42.3337C38.3333 40.867 37.8 39.667 36.2 39.667H35.1333C33.5333 39.667 33 40.867 33 42.3337Z" fill="white"/>
<path opacity="0.4" d="M51.666 48.9997V58.333H56.9993V48.9997C56.9993 47.533 56.466 46.333 54.866 46.333H53.7993C52.1993 46.333 51.666 47.533 51.666 48.9997Z" fill="white"/>
</svg>
