<svg width="90" height="90" viewBox="0 0 90 90" fill="none" xmlns="http://www.w3.org/2000/svg">
<rect width="90" height="90" rx="15" fill="#3662FE"/>
<path opacity="0.4" d="M57.8796 42.9197L56.5729 48.493C55.4529 53.3064 53.2396 55.253 49.0796 54.853C48.4129 54.7997 47.6929 54.6797 46.9196 54.493L44.6796 53.9597C39.1196 52.6397 37.3996 49.893 38.7063 44.3197L40.0129 38.733C40.2796 37.5997 40.5996 36.613 40.9996 35.7997C42.5596 32.573 45.2129 31.7064 49.6663 32.7597L51.8929 33.2797C57.4796 34.5864 59.1863 37.3464 57.8796 42.9197Z" fill="white"/>
<path d="M49.0805 54.8531C48.2538 55.4131 47.2138 55.8798 45.9471 56.2931L43.8405 56.9865C38.5471 58.6931 35.7605 57.2665 34.0405 51.9731L32.3338 46.7065C30.6271 41.4131 32.0405 38.6131 37.3338 36.9065L39.4405 36.2131C39.9871 36.0398 40.5071 35.8931 41.0005 35.7998C40.6005 36.6131 40.2805 37.5998 40.0138 38.7331L38.7071 44.3198C37.4005 49.8931 39.1205 52.6398 44.6805 53.9598L46.9205 54.4931C47.6938 54.6798 48.4138 54.7998 49.0805 54.8531Z" fill="white"/>
<path d="M52.3198 43.013C52.2398 43.013 52.1598 42.9997 52.0665 42.9864L45.5998 41.3464C45.0665 41.213 44.7465 40.6664 44.8798 40.133C45.0132 39.5997 45.5598 39.2797 46.0932 39.413L52.5598 41.053C53.0932 41.1864 53.4132 41.733 53.2798 42.2664C53.1732 42.7064 52.7598 43.013 52.3198 43.013Z" fill="white"/>
<path d="M48.4129 47.5199C48.3329 47.5199 48.2529 47.5065 48.1595 47.4932L44.2795 46.5065C43.7462 46.3732 43.4262 45.8265 43.5595 45.2932C43.6929 44.7599 44.2395 44.4399 44.7729 44.5732L48.6529 45.5599C49.1862 45.6932 49.5062 46.2399 49.3729 46.7732C49.2662 47.2265 48.8662 47.5199 48.4129 47.5199Z" fill="white"/>
</svg>
