<svg width="90" height="90" viewBox="0 0 90 90" fill="none" xmlns="http://www.w3.org/2000/svg">
<rect width="90" height="90" rx="15" fill="#3662FE"/>
<path opacity="0.4" d="M58.2927 37.547V46.2137H31.666V37.547C31.666 34.307 34.306 31.667 37.546 31.667H52.4127C55.6527 31.667 58.2927 34.307 58.2927 37.547Z" fill="white"/>
<path d="M31.666 46.2266V46.4932C31.666 49.7466 34.306 52.3732 37.546 52.3732H42.666C43.3993 52.3732 43.9993 52.9732 43.9993 53.7066V54.9999C43.9993 55.7332 43.3993 56.3332 42.666 56.3332H39.4393C38.8927 56.3332 38.4393 56.7866 38.4393 57.3332C38.4393 57.8799 38.8793 58.3332 39.4393 58.3332H50.5727C51.1193 58.3332 51.5727 57.8799 51.5727 57.3332C51.5727 56.7866 51.1193 56.3332 50.5727 56.3332H47.346C46.6127 56.3332 46.0127 55.7332 46.0127 54.9999V53.7066C46.0127 52.9732 46.6127 52.3732 47.346 52.3732H52.426C55.6793 52.3732 58.306 49.7332 58.306 46.4932V46.2266H31.666V46.2266Z" fill="white"/>
</svg>
