<svg width="90" height="90" viewBox="0 0 90 90" fill="none" xmlns="http://www.w3.org/2000/svg">
<rect width="90" height="90" rx="15" fill="#3662FE"/>
<path fill-rule="evenodd" clip-rule="evenodd" d="M39.666 30.667C40.2183 30.667 40.666 31.1147 40.666 31.667V35.667C40.666 36.2193 40.2183 36.667 39.666 36.667C39.1137 36.667 38.666 36.2193 38.666 35.667V31.667C38.666 31.1147 39.1137 30.667 39.666 30.667Z" fill="white"/>
<path fill-rule="evenodd" clip-rule="evenodd" d="M50.334 30.667C50.8863 30.667 51.334 31.1147 51.334 31.667V35.667C51.334 36.2193 50.8863 36.667 50.334 36.667C49.7817 36.667 49.334 36.2193 49.334 35.667V31.667C49.334 31.1147 49.7817 30.667 50.334 30.667Z" fill="white"/>
<path opacity="0.4" d="M57.6673 40.1603V51.8403C57.6673 52.0537 57.654 52.267 57.6407 52.467H32.3607C32.3473 52.267 32.334 52.0537 32.334 51.8403V40.1603C32.334 36.5737 35.2407 33.667 38.8273 33.667H51.174C54.7607 33.667 57.6673 36.5737 57.6673 40.1603Z" fill="white"/>
<path d="M57.6394 52.4658C57.3194 55.7592 54.546 58.3325 51.1727 58.3325H38.826C35.4527 58.3325 32.6794 55.7592 32.3594 52.4658H57.6394Z" fill="white"/>
<path d="M47.0393 44.4927C47.6393 44.0794 48.0127 43.466 48.0127 42.6394C48.0127 40.906 46.626 40.0127 44.9993 40.0127C43.3727 40.0127 41.9727 40.906 41.9727 42.6394C41.9727 43.466 42.3593 44.0927 42.946 44.4927C42.1327 44.9727 41.666 45.746 41.666 46.6527C41.666 48.306 42.9327 49.3327 44.9993 49.3327C47.0527 49.3327 48.3327 48.306 48.3327 46.6527C48.3327 45.746 47.866 44.9594 47.0393 44.4927ZM44.9993 41.666C45.6927 41.666 46.1993 42.0527 46.1993 42.7194C46.1993 43.3727 45.6927 43.786 44.9993 43.786C44.306 43.786 43.7993 43.3727 43.7993 42.7194C43.7993 42.0527 44.306 41.666 44.9993 41.666ZM44.9993 47.666C44.1193 47.666 43.4793 47.226 43.4793 46.426C43.4793 45.626 44.1193 45.1994 44.9993 45.1994C45.8793 45.1994 46.5193 45.6394 46.5193 46.426C46.5193 47.226 45.8793 47.666 44.9993 47.666Z" fill="white"/>
</svg>
