<svg width="90" height="90" viewBox="0 0 90 90" fill="none" xmlns="http://www.w3.org/2000/svg">
<rect width="90" height="90" rx="15" fill="#3662FE"/>
<path d="M46.573 44.8135C46.0396 44.8135 45.5596 44.5202 45.333 44.0402L43.3996 40.1868L42.8396 41.2268C42.533 41.8001 41.9197 42.1601 41.2663 42.1601H40.293C39.7463 42.1601 39.293 41.7068 39.293 41.1601C39.293 40.6135 39.7463 40.1601 40.293 40.1601H41.1463L42.1996 38.2134C42.453 37.7601 42.9596 37.4535 43.4396 37.4801C43.9596 37.4801 44.4263 37.7868 44.6663 38.2401L46.573 42.0535L47.0263 41.1334C47.333 40.5201 47.933 40.1468 48.6263 40.1468H49.7063C50.253 40.1468 50.7063 40.6001 50.7063 41.1468C50.7063 41.6935 50.253 42.1468 49.7063 42.1468H48.7596L47.8129 44.0268C47.5729 44.5202 47.1063 44.8135 46.573 44.8135Z" fill="white"/>
<path opacity="0.4" d="M32.6664 53.8658C32.1198 53.8658 31.6664 53.4125 31.6664 52.8658V45.2658C31.5998 41.6525 32.9464 38.2391 35.4531 35.6791C37.9598 33.1325 41.3198 31.7324 44.9331 31.7324C52.3198 31.7324 58.3331 37.7457 58.3331 45.1324V52.7324C58.3331 53.2791 57.8798 53.7324 57.3331 53.7324C56.7864 53.7324 56.3331 53.2791 56.3331 52.7324V45.1324C56.3331 38.8524 51.2264 33.7324 44.9331 33.7324C41.8531 33.7324 38.9998 34.9191 36.8798 37.0791C34.7464 39.2524 33.6131 42.1458 33.6664 45.2391V52.8525C33.6664 53.4125 33.2264 53.8658 32.6664 53.8658Z" fill="white"/>
<path d="M36.9194 45.5996H36.746C33.946 45.5996 31.666 47.8796 31.666 50.6796V53.1863C31.666 55.9863 33.946 58.2663 36.746 58.2663H36.9194C39.7194 58.2663 41.9993 55.9863 41.9993 53.1863V50.6796C41.9993 47.8796 39.7194 45.5996 36.9194 45.5996Z" fill="white"/>
<path d="M53.2533 45.5996H53.08C50.28 45.5996 48 47.8796 48 50.6796V53.1863C48 55.9863 50.28 58.2663 53.08 58.2663H53.2533C56.0533 58.2663 58.3333 55.9863 58.3333 53.1863V50.6796C58.3333 47.8796 56.0533 45.5996 53.2533 45.5996Z" fill="white"/>
</svg>
