<svg width="90" height="90" viewBox="0 0 90 90" fill="none" xmlns="http://www.w3.org/2000/svg">
<rect width="90" height="90" rx="15" fill="#3662FE"/>
<path opacity="0.4" d="M52.9335 39.2795L52.7468 39.1728L50.8935 38.1061L47.0668 35.8928C45.8935 35.2128 44.1068 35.2128 42.9335 35.8928L39.1068 38.1061L37.2535 39.1861L37.0135 39.3195C34.6268 40.9195 34.4668 41.2128 34.4668 43.7861V49.9328C34.4668 52.5061 34.6268 52.7995 37.0668 54.4395L42.9335 57.8261C43.5201 58.1728 44.2535 58.3328 45.0001 58.3328C45.7335 58.3328 46.4801 58.1728 47.0668 57.8261L52.9868 54.3995C55.3735 52.7995 55.5335 52.5061 55.5335 49.9328V43.7861C55.5335 41.2128 55.3735 40.9195 52.9335 39.2795Z" fill="white"/>
<path d="M37.2539 39.187L39.1072 38.107L42.7606 36.0003L42.9339 35.8937C44.1072 35.2137 45.8939 35.2137 47.0672 35.8937L47.2406 36.0003L50.8939 38.107L52.7472 39.1737V36.3203C52.7472 33.3203 51.0939 31.667 48.0939 31.667H41.8939C38.8939 31.667 37.2539 33.3203 37.2539 36.3203V39.187Z" fill="white"/>
<path d="M48.7876 46.787L47.961 47.8004C47.8276 47.947 47.7343 48.2404 47.7476 48.4404L47.8276 49.747C47.881 50.547 47.3076 50.9604 46.561 50.667L45.3476 50.187C45.161 50.1204 44.841 50.1204 44.6543 50.187L43.441 50.667C42.6943 50.9604 42.121 50.547 42.1743 49.747L42.2543 48.4404C42.2676 48.2404 42.1743 47.947 42.041 47.8004L41.2143 46.787C40.6943 46.1737 40.921 45.4937 41.6943 45.2937L42.961 44.9737C43.161 44.9204 43.401 44.7337 43.5076 44.5604L44.2143 43.467C44.6543 42.787 45.3476 42.787 45.7876 43.467L46.4943 44.5604C46.601 44.7337 46.841 44.9204 47.041 44.9737L48.3076 45.2937C49.081 45.4937 49.3076 46.1737 48.7876 46.787Z" fill="white"/>
</svg>
